<svg xmlns="http://www.w3.org/2000/svg" viewBox="0 0 100 100" width="100" height="100">
  <!-- Fundo circular -->
  <circle cx="50" cy="50" r="48" fill="#007bff" stroke="#0056b3" stroke-width="2"/>
  
  <!-- Livros empilhados -->
  <!-- Livro 1 (base) -->
  <rect x="25" y="60" width="50" height="8" rx="1" fill="#fff"/>
  <rect x="25" y="60" width="50" height="2" rx="1" fill="#e9ecef"/>
  
  <!-- Livro 2 -->
  <rect x="28" y="50" width="44" height="8" rx="1" fill="#f8f9fa"/>
  <rect x="28" y="50" width="44" height="2" rx="1" fill="#dee2e6"/>
  
  <!-- Livro 3 -->
  <rect x="31" y="40" width="38" height="8" rx="1" fill="#fff"/>
  <rect x="31" y="40" width="38" height="2" rx="1" fill="#e9ecef"/>
  
  <!-- Livro aberto no topo -->
  <path d="M35 25 L50 35 L65 25 L65 40 L50 50 L35 40 Z" fill="#fff" stroke="#dee2e6" stroke-width="1"/>
  <line x1="50" y1="35" x2="50" y2="50" stroke="#dee2e6" stroke-width="1"/>
  
  <!-- Detalhes dos livros (lombadas) -->
  <line x1="30" y1="60" x2="30" y2="68" stroke="#007bff" stroke-width="1"/>
  <line x1="45" y1="60" x2="45" y2="68" stroke="#007bff" stroke-width="1"/>
  <line x1="60" y1="60" x2="60" y2="68" stroke="#007bff" stroke-width="1"/>
  
  <line x1="33" y1="50" x2="33" y2="58" stroke="#007bff" stroke-width="1"/>
  <line x1="48" y1="50" x2="48" y2="58" stroke="#007bff" stroke-width="1"/>
  <line x1="63" y1="50" x2="63" y2="58" stroke="#007bff" stroke-width="1"/>
  
  <line x1="36" y1="40" x2="36" y2="48" stroke="#007bff" stroke-width="1"/>
  <line x1="51" y1="40" x2="51" y2="48" stroke="#007bff" stroke-width="1"/>
  <line x1="64" y1="40" x2="64" y2="48" stroke="#007bff" stroke-width="1"/>
</svg>
